<svg width="252" height="233" viewBox="0 0 252 233" fill="none" xmlns="http://www.w3.org/2000/svg">
<path d="M170.344 149.366V146.71C170.344 131.911 157.323 119.869 141.317 119.869H116.837C115.932 112.663 109.738 106.936 101.944 106.099V92.8578C105.917 92.0241 108.897 88.7475 108.897 84.8266C108.897 80.2776 104.895 76.5787 99.9751 76.5787C95.0552 76.5787 91.0547 80.2794 91.0547 84.8266C91.0547 88.7475 94.0354 92.0259 98.0063 92.8578V106.099C90.2121 106.936 84.0184 112.665 83.1127 119.869H58.6353C42.6274 119.869 29.6061 131.909 29.6061 146.71V149.366C21.1641 150.272 14.5884 156.915 14.5884 164.959C14.5884 173.003 21.1641 179.643 29.6061 180.55V184.239C29.6061 199.038 42.6274 211.08 58.6353 211.08H141.317C157.323 211.08 170.344 199.04 170.344 184.239V180.55C178.786 179.643 185.362 173.003 185.362 164.959C185.362 156.915 178.786 150.272 170.344 149.366Z" fill="#E6E7E8"/>
<path d="M232.905 29.2014H151.838C145.012 29.2014 139.458 34.3365 139.458 40.6476V85.5146C139.458 91.8275 145.012 96.9644 151.838 96.9644H155.697V114.749C155.697 115.466 156.149 116.114 156.858 116.409C157.118 116.516 157.392 116.569 157.665 116.569C158.138 116.569 158.604 116.413 158.971 116.11L182.322 96.9644H232.903C239.731 96.9644 245.285 91.8293 245.285 85.5146V40.6476C245.287 34.3365 239.733 29.2014 232.905 29.2014V29.2014Z" fill="#E6E7E8"/>
<path d="M133.442 201.976H50.7603C35.8785 201.976 23.6998 190.718 23.6998 176.956V139.429C23.6998 125.669 35.8765 114.41 50.7603 114.41H133.442C148.324 114.41 160.502 125.669 160.502 139.429V176.958C160.5 190.718 148.324 201.976 133.442 201.976Z" fill="#6DC9F7"/>
<path d="M133.442 114.41H50.7603C35.8785 114.41 23.6998 125.669 23.6998 139.43V144.891C23.6998 131.13 35.8765 119.871 50.7603 119.871H133.442C148.326 119.871 160.502 131.13 160.502 144.891V139.43C160.5 125.669 148.324 114.41 133.442 114.41Z" fill="white"/>
<path d="M50.7603 189.467C43.2987 189.467 37.231 183.855 37.231 176.958V139.429C37.231 132.53 43.3007 126.919 50.7603 126.919H133.442C140.903 126.919 146.971 132.531 146.971 139.429V176.958C146.971 183.857 140.901 189.467 133.442 189.467H50.7603Z" fill="#FFD7E5"/>
<path d="M23.6998 143.79V171.561C15.4015 171.561 8.68217 165.348 8.68217 157.675C8.68217 150.003 15.4015 143.79 23.6998 143.79Z" fill="#0089EF"/>
<path d="M175.52 157.675C175.52 165.348 168.801 171.561 160.502 171.561V143.79C168.799 143.79 175.52 150.003 175.52 157.675Z" fill="#0089EF"/>
<path d="M92.1001 100.525C83.8018 100.525 77.0825 106.738 77.0825 114.41H107.12C107.12 106.738 100.398 100.525 92.1001 100.525Z" fill="#0089EF"/>
<path d="M92.1001 83.9765C95.9405 83.9765 99.0537 81.098 99.0537 77.5471C99.0537 73.9963 95.9405 71.1178 92.1001 71.1178C88.2597 71.1178 85.1465 73.9963 85.1465 77.5471C85.1465 81.098 88.2597 83.9765 92.1001 83.9765Z" fill="#FA759E"/>
<path d="M143.963 87.861C138.212 87.861 133.552 83.5505 133.552 78.2334V33.3663C133.552 28.0528 138.212 23.7405 143.963 23.7405H225.03C230.781 23.7405 235.443 28.051 235.443 33.3663V78.2334C235.443 83.5523 230.783 87.861 225.03 87.861H173.699L149.79 107.466V87.861H143.963Z" fill="#F9A826"/>
<path d="M64.6833 143.512C60.0331 143.512 56.2275 147.03 56.2275 151.33C56.2275 155.629 60.0331 159.148 64.6833 159.148C69.3334 159.148 73.139 155.629 73.139 151.33C73.139 147.03 69.3354 143.512 64.6833 143.512Z" fill="#3A2C60"/>
<path d="M119.519 159.148C124.189 159.148 127.975 155.648 127.975 151.33C127.975 147.012 124.189 143.512 119.519 143.512C114.849 143.512 111.063 147.012 111.063 151.33C111.063 155.648 114.849 159.148 119.519 159.148Z" fill="#3A2C60"/>
<path d="M99.1108 168.104C99.0084 168.224 96.5691 171.055 92.1001 171.055C87.5483 171.055 85.2351 168.281 85.1169 168.139C84.4791 167.332 83.2565 167.15 82.3764 167.736C81.4944 168.324 81.2956 169.462 81.9315 170.277C82.0713 170.458 85.4536 174.695 92.0981 174.695C98.5733 174.695 102.091 170.49 102.237 170.312C102.891 169.515 102.721 168.384 101.865 167.775C101.013 167.17 99.7762 167.312 99.1108 168.104V168.104Z" fill="#3A2C60"/>
<path d="M162.469 142.084V139.429C162.469 124.63 149.448 112.588 133.442 112.588H108.962C108.057 105.382 101.863 99.6548 94.0688 98.8175V85.5765C98.0418 84.7428 101.022 81.4663 101.022 77.5453C101.022 72.9963 97.02 69.2957 92.1001 69.2957C87.1802 69.2957 83.1797 72.9963 83.1797 77.5453C83.1797 81.4663 86.1604 84.7428 90.1313 85.5765V98.8175C82.3371 99.6548 76.1434 105.383 75.2377 112.588H50.7603C34.7524 112.588 21.7311 124.628 21.7311 139.429V142.084C13.2891 142.991 6.71342 149.632 6.71342 157.677C6.71342 165.721 13.2891 172.362 21.7311 173.268V176.958C21.7311 191.757 34.7524 203.799 50.7603 203.799H133.442C149.448 203.799 162.469 191.759 162.469 176.958V173.268C170.911 172.362 177.487 165.721 177.487 157.677C177.487 149.632 170.911 142.991 162.469 142.084ZM87.1172 77.5471C87.1172 75.006 89.3537 72.9381 92.1001 72.9381C94.8485 72.9381 97.085 75.006 97.085 77.5471C97.085 80.0883 94.8485 82.1543 92.1001 82.1543C89.3537 82.1543 87.1172 80.0883 87.1172 77.5471V77.5471ZM92.1001 102.345C98.6245 102.345 104.048 106.798 105.001 112.59H79.2008C80.1517 106.798 85.5756 102.345 92.1001 102.345ZM10.6509 157.677C10.6509 151.643 15.4665 146.63 21.7311 145.749V169.606C15.4665 168.723 10.6509 163.71 10.6509 157.677ZM158.532 176.958C158.532 189.749 147.276 200.158 133.442 200.158H50.7603C36.9259 200.158 25.6686 189.751 25.6686 176.958V171.563V143.79V139.429C25.6686 126.637 36.9259 116.229 50.7603 116.229H77.0825H107.118H133.442C147.276 116.229 158.532 126.636 158.532 139.429V143.79V171.561V176.958ZM162.469 169.604V145.747C168.734 146.628 173.549 151.641 173.549 157.675C173.549 163.71 168.734 168.723 162.469 169.604Z" fill="#3A2C60"/>
<path d="M225.03 21.9202H143.963C137.137 21.9202 131.583 27.0553 131.583 33.3663V78.2334C131.583 84.5462 137.137 89.6832 143.963 89.6832H147.822V107.468C147.822 108.185 148.274 108.833 148.983 109.128C149.243 109.235 149.517 109.288 149.79 109.288C150.263 109.288 150.729 109.131 151.096 108.829L174.447 89.6832H225.028C231.856 89.6832 237.41 84.548 237.41 78.2334V68.9061C237.41 67.9013 236.53 67.0858 235.441 67.0858C234.352 67.0858 233.472 67.9013 233.472 68.9061V78.2334C233.472 82.5384 229.684 86.0425 225.028 86.0425H173.701C173.22 86.0425 172.756 86.2045 172.396 86.5012L151.761 103.419V87.8628C151.761 86.858 150.881 86.0425 149.792 86.0425H143.965C139.311 86.0425 135.523 82.5402 135.523 78.2334V33.3663C135.523 29.0631 139.311 25.5608 143.965 25.5608H225.032C229.688 25.5608 233.476 29.0613 233.476 33.3663V42.5516C233.476 43.5564 234.356 44.3719 235.445 44.3719C236.534 44.3719 237.414 43.5564 237.414 42.5516V33.3663C237.412 27.0553 231.858 21.9202 225.03 21.9202V21.9202Z" fill="#3A2C60"/>
<path d="M235.443 47.319C234.354 47.319 233.474 48.1345 233.474 49.1393V61.8615C233.474 62.8663 234.354 63.6818 235.443 63.6818C236.532 63.6818 237.412 62.8663 237.412 61.8615V49.1393C237.412 48.1345 236.532 47.319 235.443 47.319Z" fill="#3A2C60"/>
<path d="M184.497 63.2486C188.162 63.2486 191.132 60.5021 191.132 57.1141C191.132 53.7262 188.162 50.9797 184.497 50.9797C180.833 50.9797 177.863 53.7262 177.863 57.1141C177.863 60.5021 180.833 63.2486 184.497 63.2486Z" fill="white"/>
<path d="M157.921 63.2486C161.586 63.2486 164.556 60.5021 164.556 57.1141C164.556 53.7262 161.586 50.9797 157.921 50.9797C154.257 50.9797 151.287 53.7262 151.287 57.1141C151.287 60.5021 154.257 63.2486 157.921 63.2486Z" fill="white"/>
<path d="M211.072 63.2486C214.736 63.2486 217.706 60.5021 217.706 57.1141C217.706 53.7262 214.736 50.9797 211.072 50.9797C207.407 50.9797 204.437 53.7262 204.437 57.1141C204.437 60.5021 207.407 63.2486 211.072 63.2486Z" fill="white"/>
</svg>
